<?xml version="1.0" standalone="no"?>
<!DOCTYPE svg PUBLIC "-//W3C//DTD SVG 20010904//EN"
 "http://www.w3.org/TR/2001/REC-SVG-20010904/DTD/svg10.dtd">
<svg version="1.0" xmlns="http://www.w3.org/2000/svg"
 width="834.000000pt" height="513.000000pt" viewBox="0 0 834.000000 513.000000"
 preserveAspectRatio="xMidYMid meet">

<g transform="translate(0.000000,513.000000) scale(0.100000,-0.100000)"
fill="#000000" stroke="none">
<path d="M3480 5065 l0 -65 -65 0 -65 0 0 -50 0 -50 65 0 65 0 0 -70 c0 -55
-3 -70 -15 -70 -22 0 -86 -61 -101 -97 -20 -46 -17 -100 7 -150 24 -50 57 -76
117 -92 125 -34 250 95 213 221 -14 45 -79 118 -106 118 -12 0 -15 15 -15 70
l0 70 65 0 65 0 0 50 0 50 -65 0 -65 0 0 65 0 65 -50 0 -50 0 0 -65z"/>
<path d="M3031 4415 c-55 -17 -118 -78 -133 -127 -6 -21 -13 -38 -16 -38 -3 0
-41 7 -85 16 -156 32 -301 3 -368 -74 -105 -119 -70 -259 112 -455 l76 -81 43
37 c24 20 47 37 51 37 4 0 19 4 33 10 26 10 26 10 -54 91 -113 115 -162 193
-146 234 19 49 166 57 297 16 63 -20 66 -22 79 -63 13 -44 108 -239 132 -271
12 -16 19 -16 65 -6 38 9 62 9 94 1 24 -6 44 -10 45 -9 2 1 -18 36 -43 77 -92
150 -163 321 -163 394 0 82 164 71 305 -19 87 -56 84 -47 87 -261 3 -163 5
-188 18 -184 8 2 48 4 88 4 l72 -1 0 187 0 188 37 32 c97 86 279 136 333 92
24 -19 24 -21 13 -85 -12 -72 -80 -224 -156 -347 -25 -41 -45 -76 -43 -77 1
-1 21 3 45 9 32 8 56 8 94 -1 46 -10 53 -10 65 6 24 32 119 227 132 271 13 41
16 43 79 63 131 41 278 33 297 -16 16 -40 -34 -121 -147 -236 -61 -63 -75 -81
-61 -85 43 -14 62 -25 97 -56 l38 -33 76 82 c182 196 217 336 112 455 -67 77
-212 106 -368 74 -44 -9 -83 -16 -86 -16 -3 0 -9 14 -12 31 -11 51 -79 117
-138 134 -135 40 -318 -7 -459 -117 l-38 -30 -37 30 c-140 109 -331 158 -462
117z"/>
<path d="M2745 3671 c-100 -45 -114 -196 -22 -251 42 -26 112 -26 154 0 75 45
85 153 20 217 -29 29 -44 36 -84 39 -26 2 -57 0 -68 -5z"/>
<path d="M3104 3666 c-92 -40 -108 -164 -29 -236 22 -21 36 -25 90 -25 57 0
67 3 94 29 119 114 -4 297 -155 232z"/>
<path d="M3475 3671 c-100 -45 -114 -196 -22 -251 42 -26 112 -26 154 0 75 45
85 153 20 217 -29 29 -44 36 -84 39 -26 2 -57 0 -68 -5z"/>
<path d="M3834 3666 c-92 -40 -108 -164 -30 -235 20 -19 40 -26 85 -29 54 -4
60 -2 94 27 127 112 6 304 -149 237z"/>
<path d="M4205 3671 c-69 -31 -102 -121 -72 -194 42 -100 202 -104 253 -6 27
53 15 123 -29 166 -29 29 -44 36 -84 39 -26 2 -57 0 -68 -5z"/>
<path d="M2800 3170 l0 -80 730 0 730 0 0 80 0 80 -730 0 -730 0 0 -80z"/>
<path d="M2800 2925 l0 -75 730 0 730 0 0 75 0 75 -730 0 -730 0 0 -75z"/>
<path d="M2203 2542 c-142 -51 -223 -163 -223 -308 0 -127 70 -238 185 -294
41 -20 65 -25 135 -25 73 0 93 4 142 28 198 97 243 349 93 515 -78 87 -222
123 -332 84z m147 -262 c41 -41 10 -110 -47 -110 -34 0 -46 8 -62 37 -15 30
-14 36 10 67 25 32 70 35 99 6z"/>
<path d="M3045 2551 c-172 -42 -284 -223 -241 -390 18 -72 50 -125 102 -170
64 -57 117 -76 214 -76 73 0 93 4 142 28 107 53 169 146 176 268 5 90 -12 154
-59 218 -73 99 -215 151 -334 122z m160 -224 c39 -39 50 -72 41 -121 -9 -45
-45 -82 -95 -96 -109 -29 -202 92 -145 189 24 41 62 60 118 61 41 0 53 -5 81
-33z"/>
<path d="M3843 2546 c-185 -60 -281 -268 -203 -442 27 -63 102 -138 163 -164
219 -94 457 60 457 295 0 120 -84 248 -193 295 -64 28 -166 35 -224 16z m183
-177 c37 -22 74 -91 74 -135 0 -93 -94 -173 -187 -159 -89 13 -155 112 -133
196 30 110 150 158 246 98z"/>
<path d="M4665 2547 c-66 -22 -98 -43 -146 -94 -151 -161 -101 -417 99 -511
77 -36 193 -38 267 -4 65 30 138 102 167 166 34 77 32 192 -5 267 -32 67 -100
133 -165 161 -57 26 -163 33 -217 15z m195 -151 c58 -38 85 -89 85 -163 0 -52
-5 -68 -30 -105 -88 -127 -272 -112 -336 27 -48 104 9 230 118 265 45 15 122
3 163 -24z"/>
<path d="M5473 2542 c-142 -51 -223 -163 -223 -308 0 -127 70 -238 185 -294
41 -20 65 -25 135 -25 73 0 93 4 142 28 198 97 243 349 93 515 -77 86 -224
123 -332 84z m187 -103 c90 -41 134 -108 134 -204 0 -130 -97 -225 -230 -225
-59 0 -142 45 -179 98 -27 40 -30 51 -30 125 0 76 2 85 32 129 62 88 177 121
273 77z"/>
<path d="M0 795 l0 -795 178 2 177 3 3 253 2 252 118 0 118 0 176 -253 175
-252 218 -3 c177 -2 216 0 212 11 -3 7 -89 132 -192 277 -103 145 -189 269
-191 275 -2 5 16 18 41 29 64 26 146 104 183 174 48 90 66 170 65 297 0 258
-92 404 -299 475 -121 42 -217 50 -611 50 l-373 0 0 -795z m825 455 c74 -37
98 -87 93 -200 -5 -114 -30 -160 -107 -198 -54 -26 -62 -27 -253 -31 l-198 -3
0 232 0 231 208 -3 c198 -3 209 -4 257 -28z"/>
<path d="M2111 1563 c-33 -73 -671 -1554 -671 -1558 0 -3 83 -5 185 -5 165 0
186 2 196 18 6 9 40 87 77 172 l67 155 330 0 330 0 67 -155 c37 -85 71 -163
77 -172 10 -16 31 -18 196 -18 102 0 185 2 185 5 0 5 -637 1484 -671 1558
l-12 27 -172 0 -172 0 -12 -27z m284 -679 l94 -219 -94 -3 c-52 -1 -139 -1
-194 0 l-99 3 96 222 c53 122 98 221 99 219 2 -2 46 -102 98 -222z"/>
<path d="M3332 798 l3 -793 350 1 c387 0 464 8 615 63 115 42 188 90 273 180
84 90 134 182 169 307 18 65 21 107 22 244 1 191 -11 254 -76 390 -33 70 -56
100 -127 171 -102 101 -197 154 -356 196 -99 26 -106 27 -488 31 l-387 4 2
-794z m712 467 c239 -42 366 -206 366 -470 0 -255 -125 -416 -357 -461 -43 -8
-135 -14 -219 -14 l-144 0 0 480 0 480 138 0 c75 -1 173 -7 216 -15z"/>
<path d="M5120 1525 l0 -65 90 0 90 0 2 -262 3 -263 73 -3 72 -3 0 266 0 265
95 0 96 0 -3 63 -3 62 -257 3 -258 2 0 -65z"/>
<path d="M5740 1260 l0 -331 73 3 72 3 0 325 0 325 -72 3 -73 3 0 -331z"/>
<path d="M6045 1577 c-3 -7 -4 -154 -3 -327 l3 -315 210 0 210 0 0 65 0 65
-137 3 -138 3 0 259 0 260 -70 0 c-48 0 -72 -4 -75 -13z"/>
<path d="M7370 661 c-98 -32 -184 -113 -220 -207 -29 -78 -25 -196 9 -267 29
-60 96 -128 158 -158 41 -21 63 -24 153 -24 118 0 177 19 238 77 l32 32 0 113
0 113 -75 0 -75 0 0 -89 c0 -87 0 -89 -27 -99 -158 -62 -299 45 -279 212 12
102 86 166 193 166 56 0 80 -8 134 -43 l26 -17 38 55 c37 54 37 56 19 71 -10
8 -44 27 -74 42 -44 22 -71 27 -140 29 -47 1 -96 -1 -110 -6z"/>
<path d="M5175 649 c-3 -8 -4 -156 -3 -329 l3 -315 73 -3 72 -3 0 96 0 95 90
0 c189 0 279 73 280 226 0 111 -34 173 -119 212 -52 24 -69 27 -223 30 -136 4
-169 2 -173 -9z m310 -133 c44 -19 59 -48 52 -105 -8 -71 -38 -91 -138 -91
l-79 0 0 105 0 105 65 0 c36 0 81 -6 100 -14z"/>
<path d="M5802 333 l3 -328 238 -3 237 -2 0 70 0 70 -165 0 -165 0 0 65 0 65
145 0 145 0 0 65 0 65 -145 0 -145 0 0 60 0 60 160 0 160 0 0 70 0 70 -235 0
-235 0 2 -327z"/>
<path d="M6410 330 l0 -331 73 3 72 3 3 199 2 198 136 -178 c187 -248 162
-224 244 -224 l70 0 0 330 0 330 -75 0 -75 0 -2 -204 -3 -204 -155 204 -155
204 -67 0 -68 0 0 -330z"/>
<path d="M7862 333 l3 -328 238 -3 237 -2 0 70 0 70 -165 0 -165 0 0 65 0 65
145 0 146 0 -3 63 -3 62 -142 3 -143 3 0 59 0 60 160 0 160 0 0 70 0 70 -235
0 -235 0 2 -327z"/>
</g>
</svg>
